<?xml version="1.0" encoding="UTF-8" standalone="no"?>
<svg width="283px" height="10px" viewBox="0 0 283 10" version="1.1" xmlns="http://www.w3.org/2000/svg" xmlns:xlink="http://www.w3.org/1999/xlink">
    <!-- Generator: Sketch 42 (36781) - http://www.bohemiancoding.com/sketch -->
    <title>ship</title>
    <desc>Created with Sketch.</desc>
    <defs></defs>
    <g id="Page-1" stroke="none" stroke-width="1" fill="none" fill-rule="evenodd">
        <g id="Desktop-HD" transform="translate(-90.000000, -636.000000)" fill="#FFFFFF">
            <g id="Group" transform="translate(-28.000000, -116.000000)">
                <g id="header">
                    <g id="ship" transform="translate(118.000000, 752.000000)">
                        <path d="M282.5,0.668910976 C279.117006,0.243485715 275.189302,0 271,0 C258.297451,0 248,2.23857625 248,5 C248,7.76142375 258.297451,10 271,10 C275.189302,10 279.117006,9.75651429 282.5,9.33108902 C275.625284,8.46656547 271,6.85070589 271,5 C271,3.14929411 275.625284,1.53343453 282.5,0.668910976 Z" id="Combined-Shape"></path>
                        <path d="M0,5.5 C0,4.67157288 0.675693434,4 1.50439472,4 L241.495605,4 C242.32646,4 243,4.66579723 243,5.5 C243,6.32842712 242.324307,7 241.495605,7 L1.50439472,7 C0.673540457,7 0,6.33420277 0,5.5 Z M192,5.5 C192,6.33420277 192.675645,7 193.509094,7 L213.490906,7 C214.336459,7 215,6.32842712 215,5.5 C215,4.66579723 214.324355,4 213.490906,4 L193.509094,4 C192.663541,4 192,4.67157288 192,5.5 Z M5,5.5 C5,6.33420277 5.66863283,7 6.49343323,7 L24.5065668,7 C25.3250769,7 26,6.32842712 26,5.5 C26,4.66579723 25.3313672,4 24.5065668,4 L6.49343323,4 C5.67492314,4 5,4.67157288 5,5.5 Z M40,5.5 C40,6.33420277 40.6736945,7 41.5047388,7 L46.4952612,7 C47.3316845,7 48,6.32842712 48,5.5 C48,4.66579723 47.3263055,4 46.4952612,4 L41.5047388,4 C40.6683155,4 40,4.67157288 40,5.5 Z M52,5.5 C52,6.33420277 52.6736945,7 53.5047388,7 L58.4952612,7 C59.3316845,7 60,6.32842712 60,5.5 C60,4.66579723 59.3263055,4 58.4952612,4 L53.5047388,4 C52.6683155,4 52,4.67157288 52,5.5 Z M64,5.5 C64,6.33420277 64.6736945,7 65.5047388,7 L70.4952612,7 C71.3316845,7 72,6.32842712 72,5.5 C72,4.66579723 71.3263055,4 70.4952612,4 L65.5047388,4 C64.6683155,4 64,4.67157288 64,5.5 Z" id="Combined-Shape"></path>
                    </g>
                </g>
            </g>
        </g>
    </g>
</svg>